# Blender v2.82 (sub 7) OBJ File: 'cube.blend'
# www.blender.org
mtllib cube_green.mtl
o visual_box_PLI_box
v -0.150000 -0.150000 -0.300000
v 0.150000 0.150000 -0.300000
v -0.150000 0.150000 -0.300000
v 0.150000 -0.150000 -0.300000
v 0.150000 0.150000 -0.000000
v 0.150000 -0.150000 -0.000000
v -0.150000 -0.150000 0.000000
v -0.150000 0.150000 0.000000
vn -1.0000 -0.0000 0.0000
vn -0.0000 1.0000 0.0000
vn 1.0000 0.0000 -0.0000
vn 0.0000 -1.0000 0.0000
vn 0.0000 0.0000 1.0000
vn 0.0000 0.0000 -1.0000
usemtl SpaceGreen
s off
f 3//1 1//1 8//1
f 5//2 3//2 8//2
f 3//2 5//2 2//2
f 5//3 6//3 2//3
f 7//1 8//1 1//1
f 4//4 7//4 1//4
f 6//3 4//3 2//3
f 6//4 7//4 4//4
f 7//5 5//5 8//5
f 3//6 2//6 1//6
f 7//5 6//5 5//5
f 2//6 4//6 1//6
